<?xml version="1.0" encoding="UTF-8" standalone="no"?>
<!DOCTYPE svg PUBLIC "-//W3C//DTD SVG 1.1//EN" "http://www.w3.org/Graphics/SVG/1.1/DTD/svg11.dtd">
<svg width="100%" height="100%" viewBox="0 0 122 32" version="1.1" xmlns="http://www.w3.org/2000/svg" xmlns:xlink="http://www.w3.org/1999/xlink" xml:space="preserve" xmlns:serif="http://www.serif.com/" style="fill-rule:evenodd;clip-rule:evenodd;stroke-linecap:round;stroke-linejoin:round;">
    <rect id="Artboard1" x="0" y="0" width="121.72" height="32" style="fill:none;"/>
    <g id="Artboard11" serif:id="Artboard1">
        <path d="M37.44,24L37.44,9.1L47.34,9.1L47.34,11.5L40.16,11.5L40.16,15.32L46.94,15.32L46.94,17.72L40.16,17.72L40.16,21.6L47.34,21.6L47.34,24L37.44,24ZM53.255,24.24C52.094,24.24 51.081,23.967 50.215,23.42C49.361,22.86 48.775,22.107 48.455,21.16L50.414,20.22C50.695,20.833 51.081,21.313 51.575,21.66C52.081,22.007 52.641,22.18 53.255,22.18C53.734,22.18 54.115,22.073 54.395,21.86C54.675,21.647 54.815,21.367 54.815,21.02C54.815,20.807 54.755,20.633 54.635,20.5C54.528,20.353 54.375,20.233 54.175,20.14C53.988,20.033 53.781,19.947 53.554,19.88L51.775,19.38C50.855,19.113 50.155,18.707 49.675,18.16C49.208,17.613 48.975,16.967 48.975,16.22C48.975,15.553 49.141,14.973 49.475,14.48C49.821,13.973 50.295,13.58 50.895,13.3C51.508,13.02 52.208,12.88 52.995,12.88C54.021,12.88 54.928,13.127 55.715,13.62C56.501,14.113 57.061,14.807 57.395,15.7L55.395,16.64C55.208,16.147 54.895,15.753 54.455,15.46C54.015,15.167 53.521,15.02 52.975,15.02C52.535,15.02 52.188,15.12 51.935,15.32C51.681,15.52 51.554,15.78 51.554,16.1C51.554,16.3 51.608,16.473 51.715,16.62C51.821,16.767 51.968,16.887 52.155,16.98C52.355,17.073 52.581,17.16 52.835,17.24L54.575,17.76C55.468,18.027 56.155,18.427 56.635,18.96C57.128,19.493 57.375,20.147 57.375,20.92C57.375,21.573 57.201,22.153 56.855,22.66C56.508,23.153 56.028,23.54 55.414,23.82C54.801,24.1 54.081,24.24 53.255,24.24ZM64.348,24.12C63.121,24.12 62.168,23.787 61.488,23.12C60.821,22.44 60.488,21.487 60.488,20.26L60.488,15.46L58.608,15.46L58.608,13.12L58.808,13.12C59.341,13.12 59.755,12.98 60.048,12.7C60.341,12.42 60.488,12.013 60.488,11.48L60.488,10.64L63.108,10.64L63.108,13.12L65.608,13.12L65.608,15.46L63.108,15.46L63.108,20.12C63.108,20.48 63.168,20.787 63.288,21.04C63.421,21.293 63.621,21.487 63.888,21.62C64.168,21.753 64.521,21.82 64.948,21.82C65.041,21.82 65.148,21.813 65.268,21.8C65.401,21.787 65.528,21.773 65.648,21.76L65.648,24C65.461,24.027 65.248,24.053 65.008,24.08C64.768,24.107 64.548,24.12 64.348,24.12ZM70.911,24.24C70.151,24.24 69.491,24.113 68.931,23.86C68.371,23.607 67.937,23.247 67.631,22.78C67.324,22.3 67.171,21.747 67.171,21.12C67.171,20.52 67.304,19.987 67.571,19.52C67.837,19.04 68.251,18.64 68.811,18.32C69.371,18 70.077,17.773 70.931,17.64L74.491,17.06L74.491,19.06L71.431,19.58C70.911,19.673 70.524,19.84 70.271,20.08C70.017,20.32 69.891,20.633 69.891,21.02C69.891,21.393 70.031,21.693 70.311,21.92C70.604,22.133 70.964,22.24 71.391,22.24C71.937,22.24 72.417,22.127 72.831,21.9C73.257,21.66 73.584,21.333 73.811,20.92C74.051,20.507 74.171,20.053 74.171,19.56L74.171,16.76C74.171,16.293 73.984,15.907 73.611,15.6C73.251,15.28 72.771,15.12 72.171,15.12C71.611,15.12 71.111,15.273 70.671,15.58C70.244,15.873 69.931,16.267 69.731,16.76L67.591,15.72C67.804,15.147 68.137,14.653 68.591,14.24C69.057,13.813 69.604,13.48 70.231,13.24C70.857,13 71.537,12.88 72.271,12.88C73.164,12.88 73.951,13.047 74.631,13.38C75.311,13.7 75.837,14.153 76.211,14.74C76.597,15.313 76.791,15.987 76.791,16.76L76.791,24L74.311,24L74.311,22.14L74.871,22.1C74.591,22.567 74.257,22.96 73.871,23.28C73.484,23.587 73.044,23.827 72.551,24C72.057,24.16 71.511,24.24 70.911,24.24ZM83.977,24.12C82.75,24.12 81.797,23.787 81.117,23.12C80.45,22.44 80.117,21.487 80.117,20.26L80.117,15.46L78.237,15.46L78.237,13.12L78.437,13.12C78.97,13.12 79.384,12.98 79.677,12.7C79.97,12.42 80.117,12.013 80.117,11.48L80.117,10.64L82.737,10.64L82.737,13.12L85.237,13.12L85.237,15.46L82.737,15.46L82.737,20.12C82.737,20.48 82.797,20.787 82.917,21.04C83.05,21.293 83.25,21.487 83.517,21.62C83.797,21.753 84.15,21.82 84.577,21.82C84.67,21.82 84.777,21.813 84.897,21.8C85.03,21.787 85.157,21.773 85.277,21.76L85.277,24C85.09,24.027 84.877,24.053 84.637,24.08C84.397,24.107 84.177,24.12 83.977,24.12ZM92.341,24.24C91.221,24.24 90.241,23.987 89.401,23.48C88.561,22.973 87.908,22.287 87.441,21.42C86.974,20.553 86.741,19.593 86.741,18.54C86.741,17.447 86.974,16.48 87.441,15.64C87.921,14.787 88.568,14.113 89.381,13.62C90.208,13.127 91.128,12.88 92.141,12.88C92.994,12.88 93.741,13.02 94.381,13.3C95.034,13.58 95.588,13.967 96.041,14.46C96.494,14.953 96.841,15.52 97.081,16.16C97.321,16.787 97.441,17.467 97.441,18.2C97.441,18.387 97.428,18.58 97.401,18.78C97.388,18.98 97.354,19.153 97.301,19.3L88.901,19.3L88.901,17.3L95.821,17.3L94.581,18.24C94.701,17.627 94.668,17.08 94.481,16.6C94.308,16.12 94.014,15.74 93.601,15.46C93.201,15.18 92.714,15.04 92.141,15.04C91.594,15.04 91.108,15.18 90.681,15.46C90.254,15.727 89.928,16.127 89.701,16.66C89.488,17.18 89.408,17.813 89.461,18.56C89.408,19.227 89.494,19.82 89.721,20.34C89.961,20.847 90.308,21.24 90.761,21.52C91.228,21.8 91.761,21.94 92.361,21.94C92.961,21.94 93.468,21.813 93.881,21.56C94.308,21.307 94.641,20.967 94.881,20.54L97.001,21.58C96.788,22.1 96.454,22.56 96.001,22.96C95.548,23.36 95.008,23.673 94.381,23.9C93.768,24.127 93.088,24.24 92.341,24.24ZM99.427,24L99.427,13.12L101.887,13.12L101.887,15.54L101.687,15.18C101.94,14.367 102.334,13.8 102.867,13.48C103.414,13.16 104.067,13 104.827,13L105.467,13L105.467,15.32L104.527,15.32C103.78,15.32 103.18,15.553 102.727,16.02C102.274,16.473 102.047,17.113 102.047,17.94L102.047,24L99.427,24ZM108.228,28.4C107.934,28.4 107.648,28.373 107.368,28.32C107.088,28.28 106.834,28.2 106.608,28.08L106.608,25.9C106.781,25.94 106.988,25.98 107.228,26.02C107.481,26.06 107.714,26.08 107.928,26.08C108.528,26.08 108.961,25.94 109.228,25.66C109.508,25.393 109.754,25.033 109.968,24.58L110.688,22.9L110.648,25.1L105.908,13.12L108.728,13.12L112.048,21.96L111.048,21.96L114.348,13.12L117.188,13.12L112.448,25.1C112.168,25.793 111.828,26.387 111.428,26.88C111.027,27.373 110.561,27.747 110.028,28C109.508,28.267 108.908,28.4 108.228,28.4Z" style="fill:rgb(22,24,31);fill-rule:nonzero;"/>
        <g>
            <path d="M25.334,11.613L18.223,6.083C17.599,5.597 16.831,5.334 16.04,5.334C15.25,5.334 14.482,5.597 13.858,6.083L6.746,11.613C6.318,11.946 5.972,12.371 5.735,12.858C5.497,13.344 5.373,13.879 5.374,14.42L5.374,24.02C5.374,24.727 5.654,25.406 6.155,25.906C6.655,26.406 7.333,26.687 8.04,26.687L24.04,26.687C24.747,26.687 25.426,26.406 25.926,25.906C26.426,25.406 26.707,24.727 26.707,24.02L26.707,14.42C26.707,13.323 26.2,12.287 25.334,11.613Z" style="fill:rgb(104,81,255);fill-rule:nonzero;stroke:rgb(104,81,255);stroke-width:3px;"/>
            <path d="M21.333,20C18.387,21.777 13.611,21.777 10.666,20" style="fill:none;fill-rule:nonzero;stroke:rgb(249,250,251);stroke-width:3px;"/>
        </g>
    </g>
</svg>
